<svg width="64" height="64" viewBox="0 0 64 64" fill="none" xmlns="http://www.w3.org/2000/svg">
<path d="M53.3334 34.6666C53.3334 47.9999 44.0001 54.6666 32.9067 58.5332C32.3258 58.7301 31.6948 58.7207 31.1201 58.5066C20.0001 54.6666 10.6667 47.9999 10.6667 34.6666V15.9999C10.6667 15.2927 10.9477 14.6144 11.4478 14.1143C11.9479 13.6142 12.6262 13.3332 13.3334 13.3332C18.6667 13.3332 25.3334 10.1332 29.9734 6.0799C30.5384 5.59723 31.257 5.33203 32.0001 5.33203C32.7431 5.33203 33.4618 5.59723 34.0267 6.0799C38.6934 10.1599 45.3334 13.3332 50.6667 13.3332C51.374 13.3332 52.0523 13.6142 52.5524 14.1143C53.0525 14.6144 53.3334 15.2927 53.3334 15.9999V34.6666Z" stroke="black" stroke-width="3" stroke-linecap="round" stroke-linejoin="round"/>
<path d="M24 32.0003L29.3333 37.3337L40 26.667" stroke="black" stroke-width="3" stroke-linecap="round" stroke-linejoin="round"/>
</svg>
