<svg width="64" height="64" viewBox="0 0 64 64" fill="none" xmlns="http://www.w3.org/2000/svg">
<path d="M29.3333 45.3337L34.6666 50.667C35.1919 51.1923 35.8155 51.609 36.5018 51.8932C37.1881 52.1775 37.9237 52.3238 38.6666 52.3238C39.4095 52.3238 40.145 52.1775 40.8314 51.8932C41.5177 51.609 42.1413 51.1923 42.6666 50.667C43.1919 50.1417 43.6086 49.5181 43.8928 48.8318C44.1771 48.1455 44.3234 47.4099 44.3234 46.667C44.3234 45.9241 44.1771 45.1885 43.8928 44.5022C43.6086 43.8159 43.1919 43.1923 42.6666 42.667" stroke="black" stroke-width="3" stroke-linecap="round" stroke-linejoin="round"/>
<path d="M37.3334 37.3337L44.0001 44.0004C45.061 45.0612 46.4998 45.6572 48.0001 45.6572C49.5004 45.6572 50.9393 45.0612 52.0001 44.0004C53.061 42.9395 53.657 41.5007 53.657 40.0004C53.657 38.5001 53.061 37.0612 52.0001 36.0004L41.6534 25.6537C40.1534 24.1556 38.1201 23.3141 36.0001 23.3141C33.8801 23.3141 31.8468 24.1556 30.3468 25.6537L28.0001 28.0004C26.9393 29.0612 25.5004 29.6572 24.0001 29.6572C22.4998 29.6572 21.061 29.0612 20.0001 28.0004C18.9392 26.9395 18.3433 25.5007 18.3433 24.0004C18.3433 22.5001 18.9392 21.0612 20.0001 20.0004L27.4935 12.507C29.9261 10.0808 33.0985 8.53517 36.5085 8.11496C39.9185 7.69475 43.3712 8.42392 46.3201 10.187L47.5735 10.9337C48.7089 11.619 50.0589 11.8567 51.3601 11.6004L56.0001 10.667" stroke="black" stroke-width="3" stroke-linecap="round" stroke-linejoin="round"/>
<path d="M56 8L58.6667 37.3333H53.3334" stroke="black" stroke-width="3" stroke-linecap="round" stroke-linejoin="round"/>
<path d="M7.99992 8L5.33325 37.3333L22.6666 54.6667C23.7275 55.7275 25.1663 56.3235 26.6666 56.3235C28.1669 56.3235 29.6057 55.7275 30.6666 54.6667C31.7275 53.6058 32.3234 52.167 32.3234 50.6667C32.3234 49.1664 31.7275 47.7275 30.6666 46.6667" stroke="black" stroke-width="3" stroke-linecap="round" stroke-linejoin="round"/>
<path d="M8 10.667H29.3333" stroke="black" stroke-width="3" stroke-linecap="round" stroke-linejoin="round"/>
</svg>
