<svg width="64" height="64" viewBox="0 0 64 64" fill="none" xmlns="http://www.w3.org/2000/svg">
<path d="M57.44 40H45.3333C43.9188 40 42.5623 40.5619 41.5621 41.5621C40.5619 42.5623 40 43.9188 40 45.3333V57.44" stroke="black" stroke-width="3" stroke-linecap="round" stroke-linejoin="round"/>
<path d="M18.6666 8.90625V13.3329C18.6666 15.4546 19.5095 17.4895 21.0098 18.9898C22.5101 20.4901 24.5449 21.3329 26.6666 21.3329C28.0811 21.3329 29.4377 21.8948 30.4379 22.895C31.4381 23.8952 32 25.2518 32 26.6662C32 29.5996 34.4 31.9996 37.3333 31.9996C38.7478 31.9996 40.1043 31.4377 41.1045 30.4375C42.1047 29.4373 42.6666 28.0807 42.6666 26.6662C42.6666 23.7329 45.0666 21.3329 48 21.3329H56.4533" stroke="black" stroke-width="3" stroke-linecap="round" stroke-linejoin="round"/>
<path d="M29.3333 58.533V47.9997C29.3333 46.5852 28.7714 45.2286 27.7712 44.2284C26.771 43.2282 25.4145 42.6663 24 42.6663C22.5855 42.6663 21.229 42.1044 20.2288 41.1042C19.2286 40.104 18.6667 38.7475 18.6667 37.333V34.6663C18.6667 33.2519 18.1048 31.8953 17.1046 30.8951C16.1044 29.8949 14.7478 29.333 13.3333 29.333H5.46667" stroke="black" stroke-width="3" stroke-linecap="round" stroke-linejoin="round"/>
<path d="M32 58.6663C46.7276 58.6663 58.6667 46.7273 58.6667 31.9997C58.6667 17.2721 46.7276 5.33301 32 5.33301C17.2724 5.33301 5.33337 17.2721 5.33337 31.9997C5.33337 46.7273 17.2724 58.6663 32 58.6663Z" stroke="black" stroke-width="3" stroke-linecap="round" stroke-linejoin="round"/>
</svg>
