<svg width="128" height="128" viewBox="0 0 128 128" fill="none" xmlns="http://www.w3.org/2000/svg">
<path d="M5.19275 35.3542C5.19275 42.2608 7.93642 48.8846 12.8202 53.7684C17.7039 58.6522 24.3277 61.3958 31.2344 61.3958C38.1411 61.3958 44.7649 58.6522 49.6487 53.7684C54.5324 48.8846 57.2761 42.2608 57.2761 35.3542C57.2761 31.9343 56.6025 28.548 55.2938 25.3885C53.9851 22.2289 52.0668 19.3581 49.6487 16.9399C47.2305 14.5217 44.3597 12.6035 41.2001 11.2948C38.0406 9.98609 34.6543 9.3125 31.2344 9.3125C27.8146 9.3125 24.4282 9.98609 21.2687 11.2948C18.1092 12.6035 15.2384 14.5217 12.8202 16.9399C10.402 19.3581 8.48377 22.2289 7.17505 25.3885C5.86634 28.548 5.19275 31.9343 5.19275 35.3542Z" stroke="black" stroke-width="3" stroke-linecap="round" stroke-linejoin="round"/>
<path d="M41.651 40.5624H31.2344V22.3333" stroke="black" stroke-width="3" stroke-linecap="round" stroke-linejoin="round"/>
<path d="M88.526 71.8125H108.318C109.392 71.8124 110.441 72.1446 111.319 72.7638C112.197 73.3829 112.863 74.2587 113.224 75.2708L122.521 101.312C122.802 102.1 122.889 102.944 122.775 103.772C122.661 104.601 122.349 105.39 121.866 106.072C121.383 106.755 120.742 107.311 119.998 107.694C119.255 108.076 118.43 108.274 117.594 108.271H111.516" stroke="black" stroke-width="3" stroke-linecap="round" stroke-linejoin="round"/>
<path d="M59.4323 108.271H88.5989L88.552 61.3958C88.552 60.0145 88.0033 58.6897 87.0266 57.713C86.0498 56.7362 84.725 56.1875 83.3437 56.1875H62.5104" stroke="black" stroke-width="3" stroke-linecap="round" stroke-linejoin="round"/>
<path d="M31.2344 71.8125V103.062C31.2344 104.444 31.7831 105.769 32.7599 106.745C33.7366 107.722 35.0614 108.271 36.4427 108.271H44.7292" stroke="black" stroke-width="3" stroke-linecap="round" stroke-linejoin="round"/>
<path d="M96.3385 110.875C96.3385 112.947 97.1616 114.934 98.6267 116.399C100.092 117.864 102.079 118.688 104.151 118.688C106.223 118.688 108.21 117.864 109.675 116.399C111.14 114.934 111.964 112.947 111.964 110.875C111.964 108.803 111.14 106.816 109.675 105.351C108.21 103.886 106.223 103.062 104.151 103.062C102.079 103.062 100.092 103.886 98.6267 105.351C97.1616 106.816 96.3385 108.803 96.3385 110.875Z" stroke="black" stroke-width="3" stroke-linecap="round" stroke-linejoin="round"/>
<path d="M44.2552 110.875C44.2552 112.947 45.0784 114.934 46.5435 116.399C48.0086 117.864 49.9957 118.688 52.0677 118.688C54.1398 118.688 56.1269 117.864 57.592 116.399C59.0571 114.934 59.8802 112.947 59.8802 110.875C59.8802 108.803 59.0571 106.816 57.592 105.351C56.1269 103.886 54.1398 103.062 52.0677 103.062C49.9957 103.062 48.0086 103.886 46.5435 105.351C45.0784 106.816 44.2552 108.803 44.2552 110.875Z" stroke="black" stroke-width="3" stroke-linecap="round" stroke-linejoin="round"/>
<path d="M5.19275 82.2292L20.8177 82.2553" stroke="black" stroke-width="3" stroke-linecap="round" stroke-linejoin="round"/>
<path d="M13.0052 92.6458L20.8177 92.6718" stroke="black" stroke-width="3" stroke-linecap="round" stroke-linejoin="round"/>
<path d="M18.2135 103.062L20.8177 103.089" stroke="black" stroke-width="3" stroke-linecap="round" stroke-linejoin="round"/>
<path d="M117.172 87.4375H88.526" stroke="black" stroke-width="3" stroke-linecap="round" stroke-linejoin="round"/>
<path d="M88.5834 108.271H96.823" stroke="black" stroke-width="3" stroke-linecap="round" stroke-linejoin="round"/>
</svg>
