<svg width="128" height="128" viewBox="0 0 128 128" fill="none" xmlns="http://www.w3.org/2000/svg">
<path d="M30.4867 61.4307C32.0492 59.8682 33.0909 57.264 33.0909 55.1807C33.0909 52.5764 32.0492 50.4931 30.4867 48.9306L25.7992 44.7639C23.1951 42.1597 22.1535 38.5138 23.716 34.868C25.2785 31.743 28.4035 29.1388 32.0493 29.6597L38.2992 30.1805C40.9034 30.1805 42.9868 29.1388 45.0701 27.5763C46.6326 26.0138 47.6743 23.4097 47.6743 20.8055L47.1535 14.5555C47.1535 10.9097 49.2368 7.78467 52.3618 6.22216C55.4869 4.65966 59.6536 5.70138 62.2578 8.30556L66.4239 12.993C67.9864 14.5555 70.5911 15.5972 72.6744 15.5972C75.2786 15.5972 77.3619 14.5555 78.9244 12.993L83.0911 8.30556C85.6953 5.70138 89.3411 4.65966 92.9869 6.22216C96.1119 7.78467 98.7161 10.9097 98.1953 14.5555L97.6739 20.8055C97.6739 23.4097 98.7156 25.493 100.278 27.5763C101.841 29.1388 104.445 30.1805 107.049 30.1805L113.299 29.6597C116.945 29.6597 120.07 31.743 121.633 34.868C123.195 37.993 122.154 42.1597 119.549 44.7639L114.862 48.9306C113.299 50.4931 112.258 53.0972 112.258 55.1807C112.258 57.7848 113.299 59.8682 114.862 61.4307L119.549 65.5973C122.154 68.2015 123.195 71.8473 121.633 75.4932C120.07 78.6182 116.945 81.2223 113.299 80.7015L107.049 80.1807C104.445 80.1807 102.361 81.2223 100.278 82.7848C98.7156 84.3473 97.6739 86.9515 97.6739 89.5557L98.1953 95.8057C98.1953 99.4515 96.1119 102.576 92.9869 104.139C89.8619 105.701 85.6953 104.66 83.0911 102.056L78.9244 97.3682C77.3619 95.8057 74.7578 94.764 72.6744 94.764C70.0703 94.764 67.9864 95.8057 66.4239 97.3682L62.2578 102.056" stroke="black" stroke-width="3" stroke-miterlimit="10" stroke-linecap="round" stroke-linejoin="round"/>
<path d="M81.5292 57.785L91.5781 47.7358C94.4578 54.9553 93.3724 64.1704 87.2583 70.285C81.5292 76.0141 73.1958 77.5766 65.9042 74.9725L45.5915 95.285C48.1956 102.577 46.6331 110.91 40.904 116.639C34.7536 122.789 26.0814 123.896 18.3617 120.952L28.4039 110.91C31.5289 107.785 31.5289 103.097 28.4039 99.9725C25.2789 96.8475 20.5915 96.8475 17.4665 99.9725L7.40755 110.031C3.97337 102.307 5.58248 93.6272 11.7373 87.4725C17.4665 81.7433 25.7998 80.1808 33.0915 82.785L53.404 62.4725C50.7998 55.1808 52.3622 46.8474 58.0917 41.1182C64.2083 35.0013 72.9453 33.9208 80.6333 36.8052L70.5911 46.8474C67.4661 49.9724 67.4661 54.66 70.5911 57.785C73.7161 60.91 78.4042 60.91 81.5292 57.785Z" stroke="black" stroke-width="3" stroke-miterlimit="10" stroke-linecap="round" stroke-linejoin="round"/>
</svg>
