<svg width="128" height="128" viewBox="0 0 128 128" fill="none" xmlns="http://www.w3.org/2000/svg">
<path d="M11.9219 92.7292H64.6094" stroke="black" stroke-width="3" stroke-linecap="round" stroke-linejoin="round"/>
<path d="M15.1198 30.2292H113.995" stroke="black" stroke-width="3" stroke-linecap="round" stroke-linejoin="round"/>
<path d="M67.1406 61.4792H4.69788" stroke="black" stroke-width="3" stroke-linecap="round" stroke-linejoin="round"/>
<path d="M61.2969 123.896C50.0533 123.275 39.2124 119.497 30.0181 112.996C20.8238 106.495 13.6484 97.5331 9.31518 87.1395C4.98199 76.7459 3.66651 65.3413 5.51968 54.2341C7.37286 43.1269 12.3196 32.7671 19.7924 24.3433C27.2652 15.9195 36.9613 9.77284 47.7683 6.60861C58.5753 3.44438 70.0554 3.39073 80.8915 6.45381C91.7276 9.5169 101.481 15.5726 109.032 23.9263C116.583 32.2799 121.626 42.593 123.583 53.6824" stroke="black" stroke-width="3" stroke-linecap="round" stroke-linejoin="round"/>
<path d="M60.7292 4.323C29.4792 38.1772 30.0469 82.2293 61.2969 123.896" stroke="black" stroke-width="3" stroke-linecap="round" stroke-linejoin="round"/>
<path d="M68.3385 4.323C80.0063 16.4743 87.7497 31.854 90.5625 48.4636" stroke="black" stroke-width="3" stroke-linecap="round" stroke-linejoin="round"/>
<path d="M90.0416 81.1614C90.0416 83.2334 90.8647 85.2205 92.3299 86.6856C93.795 88.1508 95.7821 88.9739 97.8541 88.9739C99.9261 88.9739 101.913 88.1508 103.378 86.6856C104.844 85.2205 105.667 83.2334 105.667 81.1614C105.667 79.0894 104.844 77.1022 103.378 75.6371C101.913 74.172 99.9261 73.3489 97.8541 73.3489C95.7821 73.3489 93.795 74.172 92.3299 75.6371C90.8647 77.1022 90.0416 79.0894 90.0416 81.1614Z" stroke="black" stroke-width="3" stroke-linecap="round" stroke-linejoin="round"/>
<path d="M121.292 81.1875C121.292 96.8125 97.8541 120.25 97.8541 120.25C97.8541 120.25 74.4166 96.8125 74.4166 81.1875C74.4166 74.9715 76.8859 69.0101 81.2813 64.6147C85.6767 60.2193 91.6381 57.75 97.8541 57.75C104.07 57.75 110.032 60.2193 114.427 64.6147C118.822 69.0101 121.292 74.9715 121.292 81.1875Z" stroke="black" stroke-width="3" stroke-linecap="round" stroke-linejoin="round"/>
</svg>
