<svg width="128" height="128" viewBox="0 0 128 128" fill="none" xmlns="http://www.w3.org/2000/svg">
<path d="M90.0416 38.0624L106.229 21.9895" stroke="black" stroke-width="3" stroke-linecap="round" stroke-linejoin="round"/>
<path d="M103.062 14.5209C103.062 17.2836 104.16 19.9331 106.113 21.8866C108.067 23.8401 110.716 24.9376 113.479 24.9376C116.242 24.9376 118.891 23.8401 120.845 21.8866C122.798 19.9331 123.896 17.2836 123.896 14.5209C123.896 11.7582 122.798 9.10872 120.845 7.15522C118.891 5.20171 116.242 4.10425 113.479 4.10425C110.716 4.10425 108.067 5.20171 106.113 7.15522C104.16 9.10872 103.063 11.7582 103.062 14.5209Z" stroke="black" stroke-width="3" stroke-linecap="round" stroke-linejoin="round"/>
<path d="M95.0521 95.1406L106.068 106.224" stroke="black" stroke-width="3" stroke-linecap="round" stroke-linejoin="round"/>
<path d="M103.115 113.479C103.115 116.242 104.212 118.891 106.166 120.845C108.119 122.798 110.769 123.896 113.531 123.896C116.294 123.896 118.943 122.798 120.897 120.845C122.85 118.891 123.948 116.242 123.948 113.479C123.948 110.716 122.85 108.067 120.897 106.113C118.943 104.16 116.294 103.063 113.531 103.062C110.769 103.063 108.119 104.16 106.166 106.113C104.212 108.067 103.115 110.716 103.115 113.479Z" stroke="black" stroke-width="3" stroke-linecap="round" stroke-linejoin="round"/>
<path d="M37.9583 38.0624L21.776 21.9895" stroke="black" stroke-width="3" stroke-linecap="round" stroke-linejoin="round"/>
<path d="M4.10419 14.5209C4.10419 17.2836 5.20165 19.9331 7.15516 21.8866C9.10866 23.8401 11.7582 24.9376 14.5209 24.9376C17.2835 24.9376 19.933 23.8401 21.8866 21.8866C23.8401 19.9331 24.9375 17.2836 24.9375 14.5209C24.9375 11.7582 23.8401 9.10872 21.8866 7.15522C19.933 5.20171 17.2835 4.10425 14.5209 4.10425C11.7582 4.10425 9.10866 5.20171 7.15516 7.15522C5.20165 9.10872 4.10419 11.7582 4.10419 14.5209Z" stroke="black" stroke-width="3" stroke-linecap="round" stroke-linejoin="round"/>
<path d="M32.9531 95.1406L21.9323 106.224" stroke="black" stroke-width="3" stroke-linecap="round" stroke-linejoin="round"/>
<path d="M4.05206 113.479C4.05206 114.847 4.3215 116.202 4.84498 117.465C5.36847 118.729 6.13576 119.878 7.10303 120.845C8.07031 121.812 9.21864 122.579 10.4824 123.103C11.7463 123.626 13.1008 123.896 14.4687 123.896C15.8367 123.896 17.1912 123.626 18.455 123.103C19.7188 122.579 20.8671 121.812 21.8344 120.845C22.8017 119.878 23.569 118.729 24.0925 117.465C24.616 116.202 24.8854 114.847 24.8854 113.479C24.8854 112.111 24.616 110.757 24.0925 109.493C23.569 108.229 22.8017 107.081 21.8344 106.113C20.8671 105.146 19.7188 104.379 18.455 103.855C17.1912 103.332 15.8367 103.062 14.4687 103.062C13.1008 103.062 11.7463 103.332 10.4824 103.855C9.21864 104.379 8.07031 105.146 7.10303 106.113C6.13576 107.081 5.36847 108.229 4.84498 109.493C4.3215 110.757 4.05206 112.111 4.05206 113.479Z" stroke="black" stroke-width="3" stroke-linecap="round" stroke-linejoin="round"/>
<path d="M87.4375 61.3958H103.062" stroke="black" stroke-width="3" stroke-linecap="round" stroke-linejoin="round"/>
<path d="M103.062 61.3959C103.062 64.1586 104.16 66.8081 106.113 68.7616C108.067 70.7151 110.716 71.8126 113.479 71.8126C116.242 71.8126 118.891 70.7151 120.845 68.7616C122.798 66.8081 123.896 64.1586 123.896 61.3959C123.896 58.6332 122.798 55.9837 120.845 54.0302C118.891 52.0767 116.242 50.9792 113.479 50.9792C110.716 50.9792 108.067 52.0767 106.113 54.0302C104.16 55.9837 103.063 58.6332 103.062 61.3959Z" stroke="black" stroke-width="3" stroke-linecap="round" stroke-linejoin="round"/>
<path d="M40.5625 61.3958H24.9375" stroke="black" stroke-width="3" stroke-linecap="round" stroke-linejoin="round"/>
<path d="M4.10419 61.3959C4.10419 64.1586 5.20165 66.8081 7.15516 68.7616C9.10866 70.7151 11.7582 71.8126 14.5209 71.8126C17.2835 71.8126 19.933 70.7151 21.8866 68.7616C23.8401 66.8081 24.9375 64.1586 24.9375 61.3959C24.9375 58.6332 23.8401 55.9837 21.8866 54.0302C19.933 52.0767 17.2835 50.9792 14.5209 50.9792C11.7582 50.9792 9.10866 52.0767 7.15516 54.0302C5.20165 55.9837 4.10419 58.6332 4.10419 61.3959Z" stroke="black" stroke-width="3" stroke-linecap="round" stroke-linejoin="round"/>
<path d="M40.6146 87.4375C40.6146 81.2215 43.0839 75.2601 47.4793 70.8647C51.8747 66.4693 57.8361 64 64.0521 64C70.2681 64 76.2296 66.4693 80.6249 70.8647C85.0203 75.2601 87.4896 81.2215 87.4896 87.4375H40.6146Z" stroke="black" stroke-width="3" stroke-linecap="round" stroke-linejoin="round"/>
<path d="M49.7291 44.4687C49.7291 46.3496 50.0996 48.2121 50.8194 49.9498C51.5392 51.6875 52.5942 53.2665 53.9242 54.5965C55.2542 55.9265 56.8332 56.9815 58.5709 57.7013C60.3086 58.4211 62.1711 58.7916 64.052 58.7916C65.933 58.7916 67.7954 58.4211 69.5332 57.7013C71.2709 56.9815 72.8499 55.9265 74.1799 54.5965C75.5099 53.2665 76.5649 51.6875 77.2847 49.9498C78.0045 48.2121 78.375 46.3496 78.375 44.4687C78.375 42.5878 78.0045 40.7253 77.2847 38.9875C76.5649 37.2498 75.5099 35.6708 74.1799 34.3408C72.8499 33.0108 71.2709 31.9558 69.5332 31.236C67.7954 30.5162 65.933 30.1458 64.052 30.1458C62.1711 30.1458 60.3086 30.5162 58.5709 31.236C56.8332 31.9558 55.2542 33.0108 53.9242 34.3408C52.5942 35.6708 51.5392 37.2498 50.8194 38.9875C50.0996 40.7253 49.7291 42.5878 49.7291 44.4687Z" stroke="black" stroke-width="3" stroke-linecap="round" stroke-linejoin="round"/>
</svg>
