<svg width="128" height="128" viewBox="0 0 128 128" fill="none" xmlns="http://www.w3.org/2000/svg">
<path d="M111.986 85.7543V68.8311H82.9429C83.4811 70.6007 83.7568 72.4401 83.7616 74.2897C83.7616 79.5313 81.6795 84.5575 77.9739 88.2636C74.2677 91.9697 69.2411 94.0519 64 94.0519C58.7584 94.0519 53.7323 91.9697 50.026 88.2636C46.3199 84.5575 44.2379 79.5313 44.2379 74.2897C44.2428 72.4401 44.5187 70.6007 45.0567 68.8311H16.0143V85.7543H28.2973C29.1576 89.6215 30.6715 93.3137 32.7738 96.6721L24.0938 105.298L36.0492 117.253L44.7292 108.573C48.1062 110.639 51.7923 112.15 55.6475 113.05V125.332H72.5707V113.05C76.4256 112.15 80.112 110.639 83.4891 108.573L92.1685 117.253L104.124 105.298L95.2261 96.6721C97.328 93.3137 98.8421 89.6215 99.7024 85.7543H111.986Z" stroke="black" stroke-width="3" stroke-linecap="round" stroke-linejoin="round"/>
<path d="M21.6371 53.3664V47.5432C21.6371 36.3079 26.1002 25.5328 34.0447 17.5882C37.8246 13.8085 42.2451 10.8167 47.051 8.71875" stroke="black" stroke-width="3" stroke-linecap="round" stroke-linejoin="round"/>
<path d="M106.363 53.3287V47.5421C106.363 36.3068 101.899 25.5317 93.9547 17.5872C90.0811 13.7132 85.5339 10.667 80.5888 8.5625" stroke="black" stroke-width="3" stroke-linecap="round" stroke-linejoin="round"/>
<path d="M16.0143 53.3281H111.986" stroke="black" stroke-width="3" stroke-linecap="round" stroke-linejoin="round"/>
<path d="M47.0768 36.6224V8.12584C47.0768 6.678 47.652 5.28946 48.6757 4.26568C49.6995 3.2419 51.0881 2.66675 52.5359 2.66675H75.1365C76.5845 2.66675 77.9728 3.2419 78.9968 4.26568C80.0208 5.28946 80.5957 6.678 80.5957 8.12584V36.6224" stroke="black" stroke-width="3" stroke-linecap="round" stroke-linejoin="round"/>
</svg>
