<svg width="128" height="128" viewBox="0 0 128 128" fill="none" xmlns="http://www.w3.org/2000/svg">
<path d="M122.052 16.3697L110.875 27.5416H100.458V17.1249L111.635 5.95302C107.778 4.20965 103.48 3.68295 99.3155 4.44307C95.1508 5.20319 91.3166 7.21404 88.3233 10.2078C85.3301 13.2016 83.32 17.0363 82.5607 21.2011C81.8013 25.3659 82.3288 29.6632 84.0729 33.5207L33.5104 84.078C29.6526 82.3346 25.3552 81.808 21.1905 82.5681C17.0258 83.3282 13.1916 85.339 10.1983 88.3328C7.20511 91.3266 5.19498 95.1613 4.43565 99.3261C3.67632 103.491 4.20383 107.788 5.94793 111.646L17.125 100.458H27.5417V110.875L16.3646 122.062C20.2224 123.806 24.5198 124.332 28.6845 123.572C32.8492 122.812 36.6835 120.801 39.6767 117.808C42.6699 114.814 44.68 110.979 45.4394 106.814C46.1987 102.65 45.6712 98.3522 43.9271 94.4947L94.4896 43.9374C98.3474 45.6808 102.645 46.2075 106.81 45.4473C110.974 44.6872 114.808 42.6764 117.802 39.6826C120.795 36.6888 122.805 32.8541 123.564 28.6893C124.324 24.5245 123.796 20.2272 122.052 16.3697Z" stroke="black" stroke-width="3" stroke-linecap="round" stroke-linejoin="round"/>
<path d="M64 53.5832L43.9271 33.5207C45.6712 29.6632 46.1987 25.3659 45.4394 21.2011C44.68 17.0363 42.6699 13.2016 39.6767 10.2078C36.6835 7.21404 32.8492 5.20319 28.6845 4.44307C24.5198 3.68295 20.2224 4.20965 16.3646 5.95302L27.5417 17.1249V27.5416H17.125L5.94793 16.3697C4.20383 20.2272 3.67632 24.5245 4.43565 28.6893C5.19498 32.8541 7.20511 36.6888 10.1983 39.6826C13.1916 42.6764 17.0258 44.6872 21.1905 45.4473C25.3552 46.2075 29.6526 45.6808 33.5104 43.9374L53.5833 63.9999" stroke="black" stroke-width="3" stroke-linecap="round" stroke-linejoin="round"/>
<path d="M64 74.4167L84.0729 94.4896C82.3288 98.3471 81.8013 102.644 82.5606 106.809C83.32 110.974 85.3301 114.809 88.3233 117.802C91.3166 120.796 95.1508 122.807 99.3155 123.567C103.48 124.327 107.778 123.801 111.635 122.057L100.458 110.875V100.458H110.875L122.052 111.641C123.796 107.783 124.324 103.486 123.564 99.321C122.805 95.1562 120.795 91.3215 117.802 88.3277C114.808 85.3339 110.974 83.3231 106.81 82.563C102.645 81.8028 98.3474 82.3295 94.4896 84.0729L74.4167 64" stroke="black" stroke-width="3" stroke-linecap="round" stroke-linejoin="round"/>
</svg>
