<svg width="64" height="64" viewBox="0 0 64 64" fill="none" xmlns="http://www.w3.org/2000/svg">
<path d="M55.382 16.647C56.339 16.145 57 15.153 57 14C57 12.346 55.654 11 54 11C52.698 11 51.598 11.839 51.184 13H42.949C42.442 7.402 37.728 3 32 3C26.272 3 21.558 7.402 21.051 13H12.816C12.402 11.839 11.302 11 10 11C8.346 11 7 12.346 7 14C7 15.153 7.661 16.145 8.618 16.647L1.086 33.594C1.029 33.722 1 33.86 1 34C1 38.962 5.038 43 10 43C14.962 43 19 38.962 19 34C19 33.86 18.971 33.722 18.914 33.594L11.382 16.647C12.047 16.298 12.561 15.715 12.816 15H21.051C21.325 18.021 22.821 20.692 25.044 22.512L27.902 53H12C9.794 53 8 54.794 8 57C8 59.206 9.794 61 12 61H52C54.206 61 56 59.206 56 57C56 54.794 54.206 53 52 53H36.098L38.956 22.512C41.179 20.692 42.675 18.02 42.949 15H51.184C51.439 15.715 51.953 16.298 52.618 16.647L45.086 33.594C45.029 33.722 45 33.86 45 34C45 38.962 49.038 43 54 43C58.962 43 63 38.962 63 34C63 33.86 62.971 33.722 62.914 33.594L55.382 16.647ZM54 13C54.551 13 55 13.449 55 14C55 14.551 54.551 15 54 15C53.449 15 53 14.551 53 14C53 13.449 53.449 13 54 13ZM10 13C10.551 13 11 13.449 11 14C11 14.551 10.551 15 10 15C9.449 15 9 14.551 9 14C9 13.449 9.449 13 10 13ZM10 18.462L16.461 33H3.539L10 18.462ZM10 41C6.48 41 3.563 38.387 3.075 35H16.924C16.437 38.387 13.52 41 10 41ZM27.18 23.872C28.354 24.447 29.639 24.825 31 24.949V53H29.911L27.18 23.872ZM54 57C54 58.103 53.103 59 52 59H12C10.897 59 10 58.103 10 57C10 55.897 10.897 55 12 55H52C53.103 55 54 55.897 54 57ZM34.089 53H33V24.949C34.361 24.826 35.647 24.448 36.82 23.872L34.089 53ZM32 23C27.038 23 23 18.962 23 14C23 9.038 27.038 5 32 5C36.962 5 41 9.038 41 14C41 18.962 36.962 23 32 23ZM60.461 33H47.539L54 18.462L60.461 33ZM54 41C50.48 41 47.563 38.387 47.075 35H60.924C60.437 38.387 57.52 41 54 41Z" fill="black"/>
<path d="M33 10.142V7H31V10.142C29.28 10.589 28 12.142 28 14C28 16.206 29.794 18 32 18C34.206 18 36 16.206 36 14C36 12.142 34.72 10.589 33 10.142ZM32 16C30.897 16 30 15.103 30 14C30 12.897 30.897 12 32 12C33.103 12 34 12.897 34 14C34 15.103 33.103 16 32 16Z" fill="black"/>
</svg>
