<svg width="64" height="64" viewBox="0 0 64 64" fill="none" xmlns="http://www.w3.org/2000/svg">
<path d="M29.3333 39.9997H34.6667C36.0812 39.9997 37.4377 39.4378 38.4379 38.4376C39.4381 37.4374 40 36.0808 40 34.6663C40 33.2519 39.4381 31.8953 38.4379 30.8951C37.4377 29.8949 36.0812 29.333 34.6667 29.333H26.6667C25.0667 29.333 23.7333 29.8663 22.9333 30.933L8 45.333" stroke="black" stroke-width="3" stroke-linecap="round" stroke-linejoin="round"/>
<path d="M18.6666 55.9997L22.9333 52.2664C23.7333 51.1997 25.0666 50.6664 26.6666 50.6664H37.3333C40.2666 50.6664 42.9333 49.5997 44.8 47.4664L57.0666 35.7331C58.0957 34.7606 58.6963 33.4192 58.7363 32.0039C58.7763 30.5887 58.2524 29.2155 57.28 28.1864C56.3075 27.1574 54.9661 26.5568 53.5508 26.5168C52.1355 26.4768 50.7623 27.0006 49.7333 27.9731L38.5333 38.3731" stroke="black" stroke-width="3" stroke-linecap="round" stroke-linejoin="round"/>
<path d="M5.33337 42.667L21.3334 58.667" stroke="black" stroke-width="3" stroke-linecap="round" stroke-linejoin="round"/>
<path d="M42.6667 31.7333C46.9377 31.7333 50.4 28.2709 50.4 23.9999C50.4 19.7289 46.9377 16.2666 42.6667 16.2666C38.3957 16.2666 34.9333 19.7289 34.9333 23.9999C34.9333 28.2709 38.3957 31.7333 42.6667 31.7333Z" stroke="black" stroke-width="3" stroke-linecap="round" stroke-linejoin="round"/>
<path d="M16 21.333C20.4183 21.333 24 17.7513 24 13.333C24 8.91473 20.4183 5.33301 16 5.33301C11.5817 5.33301 8 8.91473 8 13.333C8 17.7513 11.5817 21.333 16 21.333Z" stroke="black" stroke-width="3" stroke-linecap="round" stroke-linejoin="round"/>
</svg>
