<svg width="58" height="58" viewBox="0 0 58 58" fill="none" xmlns="http://www.w3.org/2000/svg">
<path d="M51.8484 23.6792C51.6186 23.0696 51.0269 22.6603 50.376 22.6603C50.1888 22.6603 50.0042 22.6936 49.8276 22.7595L44.081 24.8987C43.6768 25.036 43.3408 25.3355 43.1581 25.7202C42.9748 26.1077 42.9565 26.5419 43.1079 26.9458L43.1847 27.1487C43.1492 27.1653 43.1136 27.1819 43.0781 27.1989C42.1658 27.6267 41.1316 28.1115 40.4026 28.1115H40.4023C38.8781 28.0805 37.3434 27.6549 35.7184 27.2043C34.032 26.7371 32.2884 26.2536 30.5498 26.2536C29.7562 26.2536 29.0279 26.3509 28.3248 26.5522C27.2999 26.8447 26.169 27.3685 25.1831 27.9941C23.3136 27.2107 20.8506 27.3307 18.8407 27.4389C17.8621 27.492 16.938 27.5419 16.3076 27.4699C15.8474 27.4191 15.3869 27.189 14.9012 26.9378C15.0468 26.5451 15.0317 26.1195 14.8583 25.7384C14.6845 25.3567 14.3719 25.0651 13.9776 24.9176L8.1786 22.7595C7.36996 22.4565 6.4634 22.8703 6.15844 23.6779L0.398437 38.885C0.250597 39.2783 0.264357 39.7058 0.438437 40.0888C0.612197 40.4715 0.924517 40.7637 1.3194 40.9115L7.11844 43.0696C7.78436 43.3179 8.52164 43.0802 8.92868 42.5349C9.94884 43.1704 11.5949 44.2271 12.5799 44.8664C12.0698 45.7096 12.0132 46.6987 12.4439 47.5791C12.9828 48.6799 14.1997 49.3871 15.3706 49.2843C15.3991 49.6802 15.5143 50.0719 15.7184 50.4418C16.3088 51.5151 17.5556 52.1551 18.7207 51.9995C18.7642 52.3717 18.8852 52.7375 19.0836 53.0818C19.6775 54.1147 20.8983 54.7304 22.0333 54.5851C22.0784 54.9688 22.2048 55.3439 22.4135 55.6923C22.9562 56.5986 23.9789 57.1845 25.0196 57.1845H25.0202C25.8989 57.1845 26.6973 56.7784 27.2688 56.0418L27.584 55.6363L29.5168 56.9698C30.1856 57.4597 30.9738 57.7099 31.7786 57.7099C32.3072 57.7099 32.8439 57.6018 33.3584 57.3823C34.3405 56.9627 35.0804 56.2053 35.4512 55.2744C36.4013 55.4335 37.4004 55.221 38.2525 54.6555C39.0762 54.109 39.6394 53.3003 39.849 52.3983C40.6567 52.3528 41.4461 52.052 42.0976 51.5272C42.7197 51.0267 43.1642 50.3599 43.3789 49.6251C44.8228 49.6613 46.0909 48.909 46.7712 47.6059C47.5354 46.1435 47.2813 44.4031 46.154 43.1739L48.7181 41.756L48.8679 42.1515C49.098 42.7602 49.689 43.1695 50.3396 43.1695C50.5274 43.1695 50.7117 43.1362 50.888 43.0703L56.689 40.9115C57.0823 40.7643 57.3949 40.4722 57.5687 40.0895C57.7428 39.7067 57.7568 39.2792 57.6084 38.8843L51.8484 23.6792ZM28.7623 28.0853C29.3216 27.9256 29.906 27.8479 30.5498 27.8479C32.0717 27.8479 33.6362 28.2815 35.2925 28.741C36.9405 29.1979 38.6455 29.6709 40.3703 29.7055C40.3754 29.7055 40.4244 29.7058 40.4301 29.7058C41.4855 29.7058 42.689 29.1423 43.7511 28.644L48.1466 40.2485L44.8538 42.0699C44.8388 42.0578 44.8228 42.045 44.8077 42.0328C43.2634 40.7791 41.7184 39.5259 40.1732 38.2731L40.033 38.1595C40.3447 37.9327 40.4548 37.5083 40.2736 37.1547C40.0724 36.7627 39.5914 36.6066 39.2004 36.8085C38.89 36.9675 38.5757 37.1019 38.2656 37.2075C38.265 37.2075 38.264 37.2085 38.2631 37.2085C37.6237 37.4274 36.9325 37.5384 36.209 37.5384C33.7543 37.5384 30.7812 36.2223 28.2564 34.0178C27.9472 33.748 27.4816 33.757 27.1831 34.0405C25.9319 35.2283 24.2672 36.0725 22.6157 36.356C22.3261 36.4056 22.0669 36.4296 21.8231 36.4296C20.9194 36.4296 20.2125 36.0859 19.5412 35.3186C19.5805 35.2754 19.6439 35.2162 19.7431 35.1426C20.7751 34.2939 22.0372 33.0549 23.258 31.8568C24.1012 31.029 24.8983 30.2469 25.5402 29.6722C26.4855 28.9903 27.7162 28.3835 28.7623 28.0853ZM7.6746 41.5752L1.8906 39.4482L7.62212 24.2539L13.3975 26.4031L13.1479 27.0261C13.146 27.0309 13.1453 27.0354 13.1434 27.0399L13.1424 27.0395L7.8298 41.1042L7.6746 41.5752ZM15.1312 47.6994C14.6295 47.6994 14.1127 47.3615 13.8759 46.8773C13.7226 46.564 13.6282 46.0773 14.048 45.5365L16.098 42.8981C16.3709 42.5474 16.7034 42.3695 17.0861 42.3695C17.5837 42.3695 18.105 42.6856 18.354 43.1384C18.5082 43.4194 18.618 43.8664 18.2823 44.4098L15.9424 47.3803C15.6906 47.5896 15.4183 47.6994 15.1312 47.6994ZM18.3495 50.429C17.8602 50.429 17.3642 50.125 17.1149 49.6722C16.9572 49.3861 16.8426 48.933 17.1744 48.3935L19.5146 45.4229C19.7645 45.2143 20.0381 45.1055 20.33 45.1055C20.8026 45.1055 21.2877 45.396 21.537 45.8283C21.6973 46.1071 21.8215 46.5496 21.5271 47.0847L19.2202 50.0533C18.9584 50.3007 18.6666 50.429 18.3495 50.429ZM21.6778 53.012C21.2029 53.012 20.7149 52.7202 20.4647 52.2853C20.3053 52.0075 20.1821 51.5659 20.4781 51.0319L22.784 48.0635C23.0445 47.8168 23.3367 47.6895 23.6567 47.6895C24.1239 47.6895 24.608 47.9727 24.8605 48.3944C25.0208 48.6616 25.1501 49.0891 24.8877 49.6165L22.5076 52.6799C22.2551 52.8981 21.977 53.012 21.6778 53.012ZM25.0196 55.5893C24.5354 55.5893 24.0384 55.301 23.7818 54.8728C23.6253 54.6111 23.5012 54.1899 23.7652 53.661L26.146 50.5963C26.4016 50.3752 26.6797 50.2594 26.9738 50.2594C27.4762 50.2594 27.9933 50.5986 28.2311 51.084C28.3844 51.397 28.4788 51.8837 28.0596 52.4242L26.009 55.0635C25.738 55.4123 25.4052 55.5893 25.0196 55.5893ZM32.7316 55.9151C31.9594 56.2456 31.1088 56.1586 30.44 55.6693L28.5632 54.3743L29.3188 53.4021C29.8109 52.7682 30.0141 52.0223 29.9268 51.2917C30.4311 51.6994 30.9444 52.1138 31.4573 52.5288C32.3268 53.2312 33.1892 53.9282 33.9991 54.5845C33.7981 55.1688 33.3485 55.6517 32.7316 55.9151ZM45.3575 46.8664C45.0026 47.5461 44.2141 48.1717 43.0544 47.9906L37.0919 43.1784C36.7488 42.9023 36.2468 42.9544 35.9706 43.2984C35.6944 43.6408 35.7476 44.1429 36.0906 44.4194L41.8669 49.0808C41.7552 49.5416 41.4903 49.9679 41.0976 50.284C40.6212 50.6674 40.0266 50.8392 39.442 50.7877C39.2007 50.5947 38.816 50.2773 38.5616 50.0677L33.3815 45.8603C33.0394 45.5842 32.537 45.6351 32.2596 45.9771C31.9824 46.3192 32.0343 46.8213 32.3764 47.0987L37.5463 51.2975C37.8416 51.5407 38.1037 51.7573 38.3136 51.9269C38.2205 52.4821 37.8916 52.98 37.37 53.3259C36.729 53.7515 35.9588 53.8408 35.2935 53.5807C34.4023 52.8578 33.4333 52.0751 32.4599 51.2882C31.3604 50.4002 30.2564 49.5083 29.256 48.6962C28.914 48.4194 28.4119 48.4709 28.1341 48.813C28.1101 48.8427 28.0919 48.8751 28.0727 48.9067C27.6084 48.7112 27.105 48.6235 26.6138 48.6879C26.5674 48.3026 26.4388 47.9259 26.2282 47.5746C25.6228 46.5647 24.3968 45.9679 23.2826 46.1195C23.2388 45.7451 23.1172 45.3771 22.9175 45.0312C22.3434 44.0367 21.192 43.4245 20.0932 43.5202C20.0669 43.1259 19.953 42.7365 19.7514 42.3695C19.2183 41.4002 18.1719 40.7739 17.0861 40.7739C16.2116 40.7739 15.4132 41.1807 14.8391 41.9189L13.5408 43.5893C12.5098 42.9192 10.6128 41.7 9.55556 41.0469L14.3216 28.4309C14.856 28.7035 15.4496 28.9791 16.1306 29.0543C16.8906 29.14 17.8333 29.0895 18.9255 29.0306C20.4535 28.949 22.2685 28.8571 23.7168 29.1903C23.2269 29.6555 22.6967 30.1743 22.1412 30.7189C20.945 31.893 19.7079 33.1067 18.7636 33.8856C18.0903 34.3819 17.9223 34.9077 17.8996 35.2613C17.8743 35.6578 18.0157 36.0322 18.2996 36.3215C19.2832 37.4677 20.4365 38.0248 21.8234 38.0248C22.1584 38.0248 22.506 37.9935 22.8855 37.9285C24.6397 37.6274 26.3421 36.8338 27.7466 35.6712C29.3684 36.9791 32.5911 39.1336 36.209 39.1336C36.9508 39.1336 37.6692 39.0386 38.3511 38.8501L40.2868 40.4203C41.5204 41.4213 42.8218 42.4773 43.8935 43.3455C44.2106 43.6027 44.5277 43.8594 44.8448 44.1167C45.8084 45.0261 45.7242 46.1647 45.3575 46.8664ZM50.3588 41.5867L49.8829 40.3298L44.9402 27.2811L44.6154 26.4011L50.3559 24.2424L56.1303 39.4171L50.3588 41.5867Z" fill="black"/>
<path d="M37.3927 3.76817H32.8093L29.5684 0.526569C29.4186 0.376809 29.2154 0.292969 29.0042 0.292969C28.793 0.292969 28.5898 0.376809 28.4404 0.526569L25.1988 3.76817H20.6158C20.1751 3.76817 19.8183 4.12529 19.8183 4.56561V9.14865L16.577 12.3902C16.4273 12.5397 16.3438 12.7426 16.3438 12.9541C16.3438 13.1653 16.4276 13.3685 16.577 13.5176L19.8183 16.7589V21.3426C19.8183 21.7829 20.1751 22.1397 20.6158 22.1397H25.1991L28.4404 25.3803C28.5962 25.5362 28.8001 25.6139 29.0042 25.6139C29.2084 25.6139 29.4125 25.5362 29.5677 25.3803L32.8093 22.1397H37.3927C37.833 22.1397 38.1901 21.7829 38.1901 21.3426V16.7589L41.4308 13.5176C41.7425 13.2066 41.7425 12.7019 41.4314 12.3902L38.1901 9.14865V4.56561C38.1901 4.12529 37.833 3.76817 37.3927 3.76817ZM39.7396 12.9541L36.8292 15.8648C36.6794 16.0139 36.5956 16.2171 36.5956 16.4283V20.5451H32.4788C32.2676 20.5451 32.0644 20.629 31.9153 20.7787L29.0042 23.6894L26.0929 20.779C25.9434 20.6293 25.7405 20.5455 25.529 20.5455H21.4129V16.4283C21.4129 16.2168 21.3287 16.0139 21.1793 15.8648L18.2682 12.9541L21.1793 10.0421C21.329 9.89297 21.4129 9.68977 21.4129 9.47857V5.36273H25.529C25.7405 5.36273 25.9434 5.27889 26.0929 5.12913L29.0042 2.21777L31.9146 5.12913C32.0644 5.27889 32.2676 5.36273 32.4788 5.36273H36.5956V9.47857C36.5956 9.69009 36.6798 9.89297 36.8289 10.0421L39.7396 12.9541Z" fill="black"/>
</svg>
