<svg width="64" height="64" viewBox="0 0 64 64" fill="none" xmlns="http://www.w3.org/2000/svg">
<path d="M53.3307 34.6666C53.3307 47.9999 43.9974 54.6666 32.9041 58.5332C32.3232 58.7301 31.6922 58.7207 31.1174 58.5066C19.9974 54.6666 10.6641 47.9999 10.6641 34.6666V15.9999C10.6641 15.2927 10.945 14.6144 11.4451 14.1143C11.9452 13.6142 12.6235 13.3332 13.3307 13.3332C18.6641 13.3332 25.3307 10.1332 29.9707 6.0799C30.5357 5.59723 31.2543 5.33203 31.9974 5.33203C32.7405 5.33203 33.4591 5.59723 34.0241 6.0799C38.6907 10.1599 45.3307 13.3332 50.6641 13.3332C51.3713 13.3332 52.0496 13.6142 52.5497 14.1143C53.0498 14.6144 53.3307 15.2927 53.3307 15.9999V34.6666Z" stroke="black" stroke-width="3" stroke-linecap="round" stroke-linejoin="round"/>
<path d="M24 32.0013L29.3333 37.3346L40 26.668" stroke="black" stroke-width="3" stroke-linecap="round" stroke-linejoin="round"/>
</svg>
